<svg xmlns="http://www.w3.org/2000/svg" xmlns:xlink="http://www.w3.org/1999/xlink" width="500" zoomAndPan="magnify" viewBox="0 0 375 374.999991" height="500" preserveAspectRatio="xMidYMid meet" version="1.0"><defs><g/></defs><path stroke-linecap="butt" transform="matrix(0.75, 0, 0, 0.75, 175.853607, 76.350602)" fill="none" stroke-linejoin="miter" d="M 216.393122 162.074208 C 216.393122 174.084625 213.408747 184.824209 207.434788 194.282543 C 201.460829 203.678377 193.742079 210.152336 184.283745 213.699211 C 213.846247 215.256503 235.377498 226.86067 248.882708 248.52213 C 255.788958 259.475256 259.247292 272.980465 259.247292 289.037758 C 259.247292 305.09505 253.054583 319.751301 240.669165 333.006511 C 228.346248 346.26172 212.601455 355.694012 193.429579 361.292971 C 174.325411 366.89193 154.189993 369.694013 133.028533 369.694013 C 80.252488 369.694013 42.538944 355.694012 19.882693 327.683594 C 5.320192 309.824217 -1.961059 285.735674 -1.961059 255.428381 C -1.961059 250.324214 -1.679809 245.220047 -1.122517 240.121088 L 2.705608 239.746088 C 4.4504 283.558591 20.101443 314.897134 49.663945 333.751302 L 49.663945 123.891914 C 49.413945 114.43358 45.216028 107.553371 37.059777 103.261704 C 33.512902 101.20962 29.559777 100.17837 25.20561 100.17837 L 20.257693 100.17837 L 20.257693 96.350245 L 117.346241 96.350245 C 145.663951 96.350245 169.252494 102.016912 188.11187 113.345038 C 206.966038 124.667955 216.393122 140.912748 216.393122 162.074208 Z M 117.721241 351.772137 C 141.429576 351.772137 159.976452 345.548178 173.361869 333.100261 C 186.742079 320.589843 193.429579 304.1263 193.429579 283.714841 C 193.429579 270.954423 191.064995 260.188798 186.335828 251.412755 C 181.669162 242.579421 175.507703 236.011713 167.851452 231.714837 C 153.846243 223.313795 137.91395 219.115878 120.054574 219.115878 L 120.054574 215.657545 C 128.205616 215.657545 135.085825 212.735669 140.684784 206.886711 C 150.393118 196.678377 155.247285 182.766917 155.247285 165.152333 C 155.247285 147.542957 151.35666 134.532539 143.580617 126.131497 C 135.799367 117.730455 123.632699 113.282538 107.075407 112.782538 L 107.075407 351.397137 C 110.62749 351.647137 114.174365 351.772137 117.721241 351.772137 Z M 117.721241 351.772137 " stroke="#ffffff" stroke-width="7.1697" stroke-opacity="1" stroke-miterlimit="4"/><g fill="#000000" fill-opacity="1"><g transform="translate(175.853607, 349.350584)"><g><path d="M 162.3125 -151.421875 C 162.3125 -142.429688 160.0625 -134.398438 155.5625 -127.328125 C 151.070312 -120.253906 145.289062 -115.378906 138.21875 -112.703125 C 160.394531 -111.554688 176.550781 -102.859375 186.6875 -86.609375 C 191.851562 -78.390625 194.4375 -68.253906 194.4375 -56.203125 C 194.4375 -44.160156 189.796875 -33.164062 180.515625 -23.21875 C 171.242188 -13.28125 159.4375 -6.207031 145.09375 -2 C 130.757812 2.195312 115.660156 4.296875 99.796875 4.296875 C 60.222656 4.296875 31.925781 -6.21875 14.90625 -27.25 C 4.007812 -40.625 -1.4375 -58.691406 -1.4375 -81.453125 C -1.4375 -85.273438 -1.242188 -89.097656 -0.859375 -92.921875 L 2 -93.203125 C 3.34375 -60.316406 15.101562 -36.800781 37.28125 -22.65625 L 37.28125 -180.09375 C 37.082031 -187.164062 33.925781 -192.328125 27.8125 -195.578125 C 25.132812 -197.109375 22.171875 -197.875 18.921875 -197.875 L 15.1875 -197.875 L 15.1875 -200.75 L 88.03125 -200.75 C 109.257812 -200.75 126.945312 -196.492188 141.09375 -187.984375 C 155.238281 -179.472656 162.3125 -167.285156 162.3125 -151.421875 Z M 88.328125 -9.171875 C 106.109375 -9.171875 120.015625 -13.851562 130.046875 -23.21875 C 140.085938 -32.59375 145.109375 -44.925781 145.109375 -60.21875 C 145.109375 -69.78125 143.335938 -77.859375 139.796875 -84.453125 C 136.265625 -91.046875 131.628906 -95.96875 125.890625 -99.21875 C 115.378906 -105.53125 103.429688 -108.6875 90.046875 -108.6875 L 90.046875 -111.265625 C 96.160156 -111.265625 101.320312 -113.460938 105.53125 -117.859375 C 112.789062 -125.515625 116.421875 -135.9375 116.421875 -149.125 C 116.421875 -162.320312 113.503906 -172.070312 107.671875 -178.375 C 101.847656 -184.6875 92.722656 -188.035156 80.296875 -188.421875 L 80.296875 -9.46875 C 82.972656 -9.269531 85.648438 -9.171875 88.328125 -9.171875 Z M 88.328125 -9.171875 "/></g></g></g><path stroke-linecap="butt" transform="matrix(0.75, 0, 0, 0.75, 28.040554, -38.999997)" fill="none" stroke-linejoin="miter" d="M 433.982414 449.968776 C 413.216788 460.385443 391.08137 465.593777 367.57616 465.593777 C 346.810534 465.593777 327.899074 462.401069 310.841781 456.02086 C 273.992821 442.416692 242.64386 415.885441 216.7949 376.432313 C 210.154275 366.796896 197.753232 348.406269 179.591773 321.255226 C 161.492813 294.041683 149.774062 276.692723 144.43552 269.208348 C 135.06052 254.557305 127.570936 246.552096 121.971977 245.182304 L 121.971977 241.177096 C 122.232394 241.177096 122.560519 241.177096 122.951144 241.177096 C 123.404269 241.177096 123.893852 241.177096 124.414686 241.177096 C 124.935519 241.177096 125.456352 241.177096 125.977186 241.177096 C 126.498019 241.177096 127.149061 241.177096 127.930311 241.177096 C 128.774061 241.177096 129.461561 241.177096 129.982394 241.177096 C 143.586562 241.177096 156.117813 238.119804 167.576147 232.000012 C 184.893856 222.427095 193.555315 204.68751 193.555315 178.77605 C 193.555315 159.83334 188.216773 145.250006 177.539689 135.026047 C 166.925105 124.739588 154.133438 119.598963 139.159478 119.598963 L 108.789685 119.598963 L 108.789685 352.802103 C 108.789685 359.703145 111.326143 365.625021 116.404269 370.572938 C 121.482394 375.520855 127.471978 377.994813 134.37302 377.994813 L 139.649062 377.994813 L 139.649062 382.000022 L 17.966762 382.000022 L 17.966762 377.994813 L 23.242804 377.994813 C 29.88343 377.994813 35.742805 375.619813 40.82093 370.864604 C 45.899056 366.046896 48.565722 360.15627 48.826139 353.192728 L 48.826139 131.218755 C 48.565722 124.250005 45.961556 118.328129 41.013639 113.442712 C 36.065722 108.494795 30.143846 106.020837 23.242804 106.020837 L 17.966762 106.020837 L 17.966762 102.020837 L 155.175104 102.020837 C 189.617815 102.020837 216.274067 109.864587 235.154276 125.552088 C 250.128236 137.859381 257.617819 155.20834 257.617819 177.604175 C 257.617819 200.00001 250.326152 218.197928 235.742818 232.19272 C 221.221984 246.192721 204.654274 253.192722 186.034481 253.192722 C 184.409481 253.192722 182.649065 253.062513 180.763648 252.802097 C 191.701148 258.661472 200.846982 265.203139 208.20115 272.427098 C 215.560525 279.588557 221.971984 286.395849 227.440734 292.838557 C 232.909485 299.218766 237.565735 304.885433 241.404277 309.83335 C 245.248027 314.713559 250.357402 321.223976 256.737611 329.364602 C 263.185528 337.500019 269.857404 345.994811 276.758446 354.848978 C 283.721988 363.640645 291.40428 372.625021 299.805322 381.802105 C 308.201156 390.984397 317.513657 399.708356 327.732407 407.973982 C 338.018866 416.244816 348.503242 423.046899 359.180326 428.385441 C 381.836578 439.843775 406.768871 445.703151 433.982414 445.963568 Z M 433.982414 449.968776 " stroke="#ffffff" stroke-width="7.5" stroke-opacity="1" stroke-miterlimit="4"/><g fill="#000000" fill-opacity="1"><g transform="translate(28.040554, 247.499984)"><g><path d="M 325.5 51 C 309.894531 58.800781 293.296875 62.703125 275.703125 62.703125 C 260.097656 62.703125 245.894531 60.300781 233.09375 55.5 C 205.5 45.300781 182 25.398438 162.59375 -4.203125 C 157.59375 -11.398438 148.289062 -25.195312 134.6875 -45.59375 C 121.09375 -66 112.296875 -79 108.296875 -84.59375 C 101.296875 -95.59375 95.695312 -101.59375 91.5 -102.59375 L 91.5 -105.59375 C 91.695312 -105.59375 91.945312 -105.59375 92.25 -105.59375 C 92.550781 -105.59375 92.898438 -105.59375 93.296875 -105.59375 C 93.703125 -105.59375 94.101562 -105.59375 94.5 -105.59375 C 94.894531 -105.59375 95.394531 -105.59375 96 -105.59375 C 96.601562 -105.59375 97.101562 -105.59375 97.5 -105.59375 C 107.695312 -105.59375 117.097656 -107.894531 125.703125 -112.5 C 138.703125 -119.695312 145.203125 -133 145.203125 -152.40625 C 145.203125 -166.601562 141.203125 -177.550781 133.203125 -185.25 C 125.203125 -192.945312 115.601562 -196.796875 104.40625 -196.796875 L 81.59375 -196.796875 L 81.59375 -21.90625 C 81.59375 -16.695312 83.492188 -12.242188 87.296875 -8.546875 C 91.097656 -4.847656 95.597656 -3 100.796875 -3 L 104.703125 -3 L 104.703125 0 L 13.5 0 L 13.5 -3 L 17.40625 -3 C 22.40625 -3 26.800781 -4.796875 30.59375 -8.390625 C 34.394531 -11.992188 36.394531 -16.394531 36.59375 -21.59375 L 36.59375 -188.09375 C 36.394531 -193.300781 34.445312 -197.753906 30.75 -201.453125 C 27.050781 -205.148438 22.601562 -207 17.40625 -207 L 13.5 -207 L 13.5 -210 L 116.40625 -210 C 142.195312 -210 162.195312 -204.097656 176.40625 -192.296875 C 187.601562 -183.097656 193.203125 -170.097656 193.203125 -153.296875 C 193.203125 -136.492188 187.75 -122.84375 176.84375 -112.34375 C 165.945312 -101.84375 153.5 -96.59375 139.5 -96.59375 C 138.300781 -96.59375 137 -96.695312 135.59375 -96.90625 C 143.800781 -92.5 150.65625 -87.59375 156.15625 -82.1875 C 161.65625 -76.789062 166.453125 -71.691406 170.546875 -66.890625 C 174.648438 -62.097656 178.148438 -57.847656 181.046875 -54.140625 C 183.953125 -50.441406 187.800781 -45.539062 192.59375 -39.4375 C 197.394531 -33.34375 202.394531 -26.992188 207.59375 -20.390625 C 212.800781 -13.796875 218.550781 -7.046875 224.84375 -0.140625 C 231.144531 6.753906 238.144531 13.300781 245.84375 19.5 C 253.550781 25.695312 261.40625 30.796875 269.40625 34.796875 C 286.40625 43.398438 305.101562 47.800781 325.5 48 Z M 325.5 51 "/></g></g></g></svg>